<svg width="9" height="5" viewBox="0 0 9 5" fill="none" xmlns="http://www.w3.org/2000/svg">
<path d="M3.99959 0.000439644L4.99959 0L8.49959 0.000439644C8.59841 0.000526905 8.695 0.0298986 8.77714 0.0848451C8.85928 0.139791 8.9233 0.217849 8.96111 0.309157C8.99892 0.400466 9.00882 0.500931 8.98956 0.597864C8.97031 0.694797 8.92276 0.783848 8.85292 0.853773L4.85292 4.85377C4.75917 4.94741 4.63209 5 4.49959 5C4.36708 5 4.24 4.94741 4.14625 4.85377L0.146251 0.853773C0.0764132 0.783848 0.0288649 0.694797 0.00960827 0.597864C-0.00964832 0.500931 0.00025177 0.400466 0.0380592 0.309157C0.0758677 0.217849 0.139886 0.139791 0.22203 0.0848451C0.304173 0.0298986 0.400758 0.000526905 0.499584 0.000439644H3.99959Z" fill="#1C5D99"/>
</svg>
