<svg width="9" height="5" viewBox="0 0 9 5" fill="none" xmlns="http://www.w3.org/2000/svg">
<path d="M4.00044 0.000439644L5.00044 0L8.50044 0.000439644C8.59927 0.000526905 8.69585 0.0298986 8.77799 0.0848451C8.86014 0.139791 8.92416 0.217849 8.96196 0.309157C8.99977 0.400466 9.00967 0.500931 8.99042 0.597864C8.97116 0.694797 8.92361 0.783848 8.85377 0.853773L4.85377 4.85377C4.76002 4.94741 4.63294 5 4.50044 5C4.36794 5 4.24086 4.94741 4.14711 4.85377L0.147105 0.853773C0.0772676 0.783848 0.0297194 0.694797 0.0104628 0.597864C-0.00879383 0.500931 0.00110626 0.400466 0.0389137 0.309157C0.0767221 0.217849 0.14074 0.139791 0.222884 0.0848451C0.305028 0.0298986 0.401612 0.000526905 0.500439 0.000439644H4.00044Z" fill="#FAFBFC"/>
</svg>
