<svg width="20" height="20" viewBox="0 0 20 20" fill="none" xmlns="http://www.w3.org/2000/svg">
<circle cx="10" cy="10" r="10" fill="#F2178E"/>
<path d="M6.21975 6.21975C6.28932 6.15009 6.37194 6.09482 6.46288 6.05712C6.55382 6.01941 6.6513 6 6.74975 6C6.8482 6 6.94569 6.01941 7.03663 6.05712C7.12757 6.09482 7.21019 6.15009 7.27975 6.21975L9.99975 8.93875L12.7198 6.21975C12.7894 6.15015 12.872 6.09494 12.9629 6.05728C13.0539 6.01961 13.1513 6.00022 13.2498 6.00022C13.3482 6.00022 13.4457 6.01961 13.5366 6.05728C13.6275 6.09494 13.7102 6.15015 13.7798 6.21975C13.8494 6.28936 13.9046 6.37198 13.9422 6.46292C13.9799 6.55386 13.9993 6.65132 13.9993 6.74975C13.9993 6.84818 13.9799 6.94565 13.9422 7.03659C13.9046 7.12753 13.8494 7.21015 13.7798 7.27975L11.0608 9.99975L13.7798 12.7198C13.9203 12.8603 13.9993 13.051 13.9993 13.2498C13.9993 13.4485 13.9203 13.6392 13.7798 13.7798C13.6392 13.9203 13.4485 13.9993 13.2498 13.9993C13.051 13.9993 12.8603 13.9203 12.7198 13.7798L9.99975 11.0608L7.27975 13.7798C7.13919 13.9203 6.94854 13.9993 6.74975 13.9993C6.55097 13.9993 6.36032 13.9203 6.21975 13.7798C6.07919 13.6392 6.00022 13.4485 6.00022 13.2498C6.00022 13.051 6.07919 12.8603 6.21975 12.7198L8.93875 9.99975L6.21975 7.27975C6.15009 7.21019 6.09482 7.12757 6.05712 7.03663C6.01941 6.94569 6 6.8482 6 6.74975C6 6.6513 6.01941 6.55382 6.05712 6.46288C6.09482 6.37194 6.15009 6.28932 6.21975 6.21975Z" fill="#FAFBFC"/>
</svg>
