<svg width="77" height="31" viewBox="0 0 77 31" fill="none" xmlns="http://www.w3.org/2000/svg">
<g clip-path="url(#clip0_52_66)">
<path d="M7.176 25C5.128 25 3.656 24.552 2.76 23.656C1.88 22.76 1.44 21.464 1.44 19.768V8.2H4.824V19.768C4.824 20.648 5.016 21.304 5.4 21.736C5.784 22.152 6.376 22.36 7.176 22.36H12.552V25H7.176ZM24.3917 21.472C24.3917 21.904 24.4717 22.256 24.6317 22.528C24.8077 22.8 25.1117 23.096 25.5437 23.416L23.4557 25.24C22.9277 24.968 22.5117 24.68 22.2077 24.376C21.9037 24.072 21.6717 23.712 21.5117 23.296C20.7757 24.624 19.6317 25.288 18.0797 25.288C16.8157 25.288 15.8397 24.952 15.1517 24.28C14.4637 23.608 14.1197 22.648 14.1197 21.4V13.72H17.2397V21.112C17.2397 21.656 17.3917 22.088 17.6957 22.408C18.0157 22.728 18.4477 22.888 18.9917 22.888C20.0477 22.888 20.8077 22.2 21.2717 20.824V13.72H24.3917V21.472Z" fill="url(#paint0_linear_52_66)"/>
<path d="M30.1836 16.6895V25H28.377V14.4336H30.0859L30.1836 16.6895ZM29.7539 19.3164L29.002 19.2871C29.0085 18.5645 29.1159 17.8971 29.3242 17.2852C29.5326 16.6667 29.8255 16.1296 30.2031 15.6738C30.5807 15.2181 31.0299 14.8665 31.5508 14.6191C32.0781 14.3652 32.6608 14.2383 33.2988 14.2383C33.8197 14.2383 34.2884 14.3099 34.7051 14.4531C35.1217 14.5898 35.4766 14.8112 35.7695 15.1172C36.069 15.4232 36.2969 15.8203 36.4531 16.3086C36.6094 16.7904 36.6875 17.3796 36.6875 18.0762V25H34.8711V18.0566C34.8711 17.5033 34.7897 17.0605 34.627 16.7285C34.4642 16.39 34.2266 16.1458 33.9141 15.9961C33.6016 15.8398 33.2174 15.7617 32.7617 15.7617C32.3125 15.7617 31.9023 15.8561 31.5312 16.0449C31.1667 16.2337 30.8509 16.4941 30.584 16.8262C30.3236 17.1582 30.1185 17.5391 29.9688 17.9688C29.8255 18.3919 29.7539 18.8411 29.7539 19.3164ZM38.9531 19.834V19.6094C38.9531 18.8477 39.0638 18.1413 39.2852 17.4902C39.5065 16.8327 39.8255 16.263 40.2422 15.7812C40.6589 15.293 41.1634 14.9154 41.7559 14.6484C42.3483 14.375 43.0124 14.2383 43.748 14.2383C44.4902 14.2383 45.1576 14.375 45.75 14.6484C46.349 14.9154 46.8568 15.293 47.2734 15.7812C47.6966 16.263 48.0189 16.8327 48.2402 17.4902C48.4616 18.1413 48.5723 18.8477 48.5723 19.6094V19.834C48.5723 20.5957 48.4616 21.3021 48.2402 21.9531C48.0189 22.6042 47.6966 23.1738 47.2734 23.6621C46.8568 24.1439 46.3522 24.5215 45.7598 24.7949C45.1738 25.0618 44.5098 25.1953 43.7676 25.1953C43.0254 25.1953 42.3581 25.0618 41.7656 24.7949C41.1732 24.5215 40.6654 24.1439 40.2422 23.6621C39.8255 23.1738 39.5065 22.6042 39.2852 21.9531C39.0638 21.3021 38.9531 20.5957 38.9531 19.834ZM40.7598 19.6094V19.834C40.7598 20.3613 40.8216 20.8594 40.9453 21.3281C41.069 21.7904 41.2546 22.2005 41.502 22.5586C41.7559 22.9167 42.0716 23.1999 42.4492 23.4082C42.8268 23.61 43.2663 23.7109 43.7676 23.7109C44.2624 23.7109 44.6953 23.61 45.0664 23.4082C45.444 23.1999 45.7565 22.9167 46.0039 22.5586C46.2513 22.2005 46.4368 21.7904 46.5605 21.3281C46.6908 20.8594 46.7559 20.3613 46.7559 19.834V19.6094C46.7559 19.0885 46.6908 18.597 46.5605 18.1348C46.4368 17.666 46.248 17.2526 45.9941 16.8945C45.7467 16.5299 45.4342 16.2435 45.0566 16.0352C44.6855 15.8268 44.2493 15.7227 43.748 15.7227C43.2533 15.7227 42.8171 15.8268 42.4395 16.0352C42.0684 16.2435 41.7559 16.5299 41.502 16.8945C41.2546 17.2526 41.069 17.666 40.9453 18.1348C40.8216 18.597 40.7598 19.0885 40.7598 19.6094ZM55.2617 14.4336V15.8203H49.5488V14.4336H55.2617ZM51.4824 11.8652H53.2891V22.3828C53.2891 22.7409 53.3444 23.0111 53.4551 23.1934C53.5658 23.3757 53.709 23.4961 53.8848 23.5547C54.0605 23.6133 54.2493 23.6426 54.4512 23.6426C54.6009 23.6426 54.7572 23.6296 54.9199 23.6035C55.0892 23.571 55.2161 23.5449 55.3008 23.5254L55.3105 25C55.1673 25.0456 54.9785 25.0879 54.7441 25.127C54.5163 25.1725 54.2396 25.1953 53.9141 25.1953C53.4714 25.1953 53.0645 25.1074 52.6934 24.9316C52.3223 24.7559 52.026 24.4629 51.8047 24.0527C51.5898 23.6361 51.4824 23.0762 51.4824 22.373V11.8652ZM61.7656 25.1953C61.0299 25.1953 60.3626 25.0716 59.7637 24.8242C59.1712 24.5703 58.6602 24.2155 58.2305 23.7598C57.8073 23.304 57.4818 22.7637 57.2539 22.1387C57.026 21.5137 56.9121 20.8301 56.9121 20.0879V19.6777C56.9121 18.8184 57.0391 18.0534 57.293 17.3828C57.5469 16.7057 57.8919 16.1328 58.3281 15.6641C58.7643 15.1953 59.2591 14.8405 59.8125 14.5996C60.3659 14.3587 60.9388 14.2383 61.5312 14.2383C62.2865 14.2383 62.9375 14.3685 63.4844 14.6289C64.0378 14.8893 64.4902 15.2539 64.8418 15.7227C65.1934 16.1849 65.4538 16.7318 65.623 17.3633C65.7923 17.9883 65.877 18.6719 65.877 19.4141V20.2246H57.9863V18.75H64.0703V18.6133C64.0443 18.1445 63.9466 17.6888 63.7773 17.2461C63.6146 16.8034 63.3542 16.4388 62.9961 16.1523C62.638 15.8659 62.1497 15.7227 61.5312 15.7227C61.1211 15.7227 60.7435 15.8105 60.3984 15.9863C60.0534 16.1556 59.7572 16.4095 59.5098 16.748C59.2624 17.0866 59.0703 17.5 58.9336 17.9883C58.7969 18.4766 58.7285 19.0397 58.7285 19.6777V20.0879C58.7285 20.5892 58.7969 21.0612 58.9336 21.5039C59.0768 21.9401 59.2819 22.3242 59.5488 22.6562C59.8223 22.9883 60.151 23.2487 60.5352 23.4375C60.9258 23.6263 61.3685 23.7207 61.8633 23.7207C62.5013 23.7207 63.0417 23.5905 63.4844 23.3301C63.9271 23.0697 64.3145 22.7214 64.6465 22.2852L65.7402 23.1543C65.5124 23.4993 65.2227 23.8281 64.8711 24.1406C64.5195 24.4531 64.0866 24.707 63.5723 24.9023C63.0645 25.0977 62.4622 25.1953 61.7656 25.1953ZM74.1387 22.1973C74.1387 21.9368 74.0801 21.696 73.9629 21.4746C73.8522 21.2467 73.6211 21.0417 73.2695 20.8594C72.9245 20.6706 72.4036 20.5078 71.707 20.3711C71.1211 20.2474 70.5905 20.1009 70.1152 19.9316C69.6465 19.7624 69.2461 19.5573 68.9141 19.3164C68.5885 19.0755 68.3379 18.7923 68.1621 18.4668C67.9863 18.1413 67.8984 17.7604 67.8984 17.3242C67.8984 16.9076 67.9896 16.5137 68.1719 16.1426C68.3607 15.7715 68.6243 15.4427 68.9629 15.1562C69.3079 14.8698 69.7214 14.6452 70.2031 14.4824C70.6849 14.3197 71.222 14.2383 71.8145 14.2383C72.6608 14.2383 73.3835 14.388 73.9824 14.6875C74.5814 14.987 75.0404 15.3874 75.3594 15.8887C75.6784 16.3835 75.8379 16.9336 75.8379 17.5391H74.0312C74.0312 17.2461 73.9434 16.9629 73.7676 16.6895C73.5983 16.4095 73.3477 16.1784 73.0156 15.9961C72.6901 15.8138 72.2897 15.7227 71.8145 15.7227C71.3132 15.7227 70.9062 15.8008 70.5938 15.957C70.2878 16.1068 70.0632 16.2988 69.9199 16.5332C69.7832 16.7676 69.7148 17.015 69.7148 17.2754C69.7148 17.4707 69.7474 17.6465 69.8125 17.8027C69.8841 17.9525 70.0078 18.0924 70.1836 18.2227C70.3594 18.3464 70.6068 18.4635 70.9258 18.5742C71.2448 18.6849 71.6517 18.7956 72.1465 18.9062C73.0124 19.1016 73.7253 19.3359 74.2852 19.6094C74.8451 19.8828 75.2617 20.2181 75.5352 20.6152C75.8086 21.0124 75.9453 21.4941 75.9453 22.0605C75.9453 22.5228 75.8477 22.946 75.6523 23.3301C75.4635 23.7142 75.1868 24.0462 74.8223 24.3262C74.4642 24.5996 74.0345 24.8145 73.5332 24.9707C73.0384 25.1204 72.4818 25.1953 71.8633 25.1953C70.9323 25.1953 70.1445 25.0293 69.5 24.6973C68.8555 24.3652 68.3672 23.9355 68.0352 23.4082C67.7031 22.8809 67.5371 22.3242 67.5371 21.7383H69.3535C69.3796 22.2331 69.5228 22.627 69.7832 22.9199C70.0436 23.2064 70.3626 23.4115 70.7402 23.5352C71.1178 23.6523 71.4922 23.7109 71.8633 23.7109C72.3581 23.7109 72.7715 23.6458 73.1035 23.5156C73.4421 23.3854 73.6992 23.2064 73.875 22.9785C74.0508 22.7507 74.1387 22.4902 74.1387 22.1973Z" fill="#333333"/>
</g>
<defs>
<linearGradient id="paint0_linear_52_66" x1="26.8036" y1="31" x2="0.903687" y2="-0.737471" gradientUnits="userSpaceOnUse">
<stop stop-color="#FF79DA"/>
<stop offset="0.0001" stop-color="#FF79DA"/>
<stop offset="1" stop-color="#0057FF"/>
</linearGradient>
<clipPath id="clip0_52_66">
<rect width="77" height="31" fill="white"/>
</clipPath>
</defs>
</svg>
