<svg width="95" height="28" viewBox="0 0 95 28" fill="none" xmlns="http://www.w3.org/2000/svg">
<g clip-path="url(#clip0_45_48)">
<rect width="95" height="28" rx="8" fill="#FAFBFC"/>
<path d="M16.176 22C14.128 22 12.656 21.552 11.76 20.656C10.88 19.76 10.44 18.464 10.44 16.768V5.2H13.824V16.768C13.824 17.648 14.016 18.304 14.4 18.736C14.784 19.152 15.376 19.36 16.176 19.36H21.552V22H16.176ZM33.3917 18.472C33.3917 18.904 33.4717 19.256 33.6317 19.528C33.8077 19.8 34.1117 20.096 34.5437 20.416L32.4557 22.24C31.9277 21.968 31.5117 21.68 31.2077 21.376C30.9037 21.072 30.6717 20.712 30.5117 20.296C29.7757 21.624 28.6317 22.288 27.0797 22.288C25.8157 22.288 24.8397 21.952 24.1517 21.28C23.4637 20.608 23.1197 19.648 23.1197 18.4V10.72H26.2397V18.112C26.2397 18.656 26.3917 19.088 26.6957 19.408C27.0157 19.728 27.4477 19.888 27.9917 19.888C29.0477 19.888 29.8077 19.2 30.2717 17.824V10.72H33.3917V18.472Z" fill="url(#paint0_linear_45_48)"/>
<path d="M39.1836 13.6895V22H37.377V11.4336H39.0859L39.1836 13.6895ZM38.7539 16.3164L38.002 16.2871C38.0085 15.5645 38.1159 14.8971 38.3242 14.2852C38.5326 13.6667 38.8255 13.1296 39.2031 12.6738C39.5807 12.2181 40.0299 11.8665 40.5508 11.6191C41.0781 11.3652 41.6608 11.2383 42.2988 11.2383C42.8197 11.2383 43.2884 11.3099 43.7051 11.4531C44.1217 11.5898 44.4766 11.8112 44.7695 12.1172C45.069 12.4232 45.2969 12.8203 45.4531 13.3086C45.6094 13.7904 45.6875 14.3796 45.6875 15.0762V22H43.8711V15.0566C43.8711 14.5033 43.7897 14.0605 43.627 13.7285C43.4642 13.39 43.2266 13.1458 42.9141 12.9961C42.6016 12.8398 42.2174 12.7617 41.7617 12.7617C41.3125 12.7617 40.9023 12.8561 40.5312 13.0449C40.1667 13.2337 39.8509 13.4941 39.584 13.8262C39.3236 14.1582 39.1185 14.5391 38.9688 14.9688C38.8255 15.3919 38.7539 15.8411 38.7539 16.3164ZM47.9531 16.834V16.6094C47.9531 15.8477 48.0638 15.1413 48.2852 14.4902C48.5065 13.8327 48.8255 13.263 49.2422 12.7812C49.6589 12.293 50.1634 11.9154 50.7559 11.6484C51.3483 11.375 52.0124 11.2383 52.748 11.2383C53.4902 11.2383 54.1576 11.375 54.75 11.6484C55.349 11.9154 55.8568 12.293 56.2734 12.7812C56.6966 13.263 57.0189 13.8327 57.2402 14.4902C57.4616 15.1413 57.5723 15.8477 57.5723 16.6094V16.834C57.5723 17.5957 57.4616 18.3021 57.2402 18.9531C57.0189 19.6042 56.6966 20.1738 56.2734 20.6621C55.8568 21.1439 55.3522 21.5215 54.7598 21.7949C54.1738 22.0618 53.5098 22.1953 52.7676 22.1953C52.0254 22.1953 51.3581 22.0618 50.7656 21.7949C50.1732 21.5215 49.6654 21.1439 49.2422 20.6621C48.8255 20.1738 48.5065 19.6042 48.2852 18.9531C48.0638 18.3021 47.9531 17.5957 47.9531 16.834ZM49.7598 16.6094V16.834C49.7598 17.3613 49.8216 17.8594 49.9453 18.3281C50.069 18.7904 50.2546 19.2005 50.502 19.5586C50.7559 19.9167 51.0716 20.1999 51.4492 20.4082C51.8268 20.61 52.2663 20.7109 52.7676 20.7109C53.2624 20.7109 53.6953 20.61 54.0664 20.4082C54.444 20.1999 54.7565 19.9167 55.0039 19.5586C55.2513 19.2005 55.4368 18.7904 55.5605 18.3281C55.6908 17.8594 55.7559 17.3613 55.7559 16.834V16.6094C55.7559 16.0885 55.6908 15.597 55.5605 15.1348C55.4368 14.666 55.248 14.2526 54.9941 13.8945C54.7467 13.5299 54.4342 13.2435 54.0566 13.0352C53.6855 12.8268 53.2493 12.7227 52.748 12.7227C52.2533 12.7227 51.8171 12.8268 51.4395 13.0352C51.0684 13.2435 50.7559 13.5299 50.502 13.8945C50.2546 14.2526 50.069 14.666 49.9453 15.1348C49.8216 15.597 49.7598 16.0885 49.7598 16.6094ZM64.2617 11.4336V12.8203H58.5488V11.4336H64.2617ZM60.4824 8.86523H62.2891V19.3828C62.2891 19.7409 62.3444 20.0111 62.4551 20.1934C62.5658 20.3757 62.709 20.4961 62.8848 20.5547C63.0605 20.6133 63.2493 20.6426 63.4512 20.6426C63.6009 20.6426 63.7572 20.6296 63.9199 20.6035C64.0892 20.571 64.2161 20.5449 64.3008 20.5254L64.3105 22C64.1673 22.0456 63.9785 22.0879 63.7441 22.127C63.5163 22.1725 63.2396 22.1953 62.9141 22.1953C62.4714 22.1953 62.0645 22.1074 61.6934 21.9316C61.3223 21.7559 61.026 21.4629 60.8047 21.0527C60.5898 20.6361 60.4824 20.0762 60.4824 19.373V8.86523ZM70.7656 22.1953C70.0299 22.1953 69.3626 22.0716 68.7637 21.8242C68.1712 21.5703 67.6602 21.2155 67.2305 20.7598C66.8073 20.304 66.4818 19.7637 66.2539 19.1387C66.026 18.5137 65.9121 17.8301 65.9121 17.0879V16.6777C65.9121 15.8184 66.0391 15.0534 66.293 14.3828C66.5469 13.7057 66.8919 13.1328 67.3281 12.6641C67.7643 12.1953 68.2591 11.8405 68.8125 11.5996C69.3659 11.3587 69.9388 11.2383 70.5312 11.2383C71.2865 11.2383 71.9375 11.3685 72.4844 11.6289C73.0378 11.8893 73.4902 12.2539 73.8418 12.7227C74.1934 13.1849 74.4538 13.7318 74.623 14.3633C74.7923 14.9883 74.877 15.6719 74.877 16.4141V17.2246H66.9863V15.75H73.0703V15.6133C73.0443 15.1445 72.9466 14.6888 72.7773 14.2461C72.6146 13.8034 72.3542 13.4388 71.9961 13.1523C71.638 12.8659 71.1497 12.7227 70.5312 12.7227C70.1211 12.7227 69.7435 12.8105 69.3984 12.9863C69.0534 13.1556 68.7572 13.4095 68.5098 13.748C68.2624 14.0866 68.0703 14.5 67.9336 14.9883C67.7969 15.4766 67.7285 16.0397 67.7285 16.6777V17.0879C67.7285 17.5892 67.7969 18.0612 67.9336 18.5039C68.0768 18.9401 68.2819 19.3242 68.5488 19.6562C68.8223 19.9883 69.151 20.2487 69.5352 20.4375C69.9258 20.6263 70.3685 20.7207 70.8633 20.7207C71.5013 20.7207 72.0417 20.5905 72.4844 20.3301C72.9271 20.0697 73.3145 19.7214 73.6465 19.2852L74.7402 20.1543C74.5124 20.4993 74.2227 20.8281 73.8711 21.1406C73.5195 21.4531 73.0866 21.707 72.5723 21.9023C72.0645 22.0977 71.4622 22.1953 70.7656 22.1953ZM83.1387 19.1973C83.1387 18.9368 83.0801 18.696 82.9629 18.4746C82.8522 18.2467 82.6211 18.0417 82.2695 17.8594C81.9245 17.6706 81.4036 17.5078 80.707 17.3711C80.1211 17.2474 79.5905 17.1009 79.1152 16.9316C78.6465 16.7624 78.2461 16.5573 77.9141 16.3164C77.5885 16.0755 77.3379 15.7923 77.1621 15.4668C76.9863 15.1413 76.8984 14.7604 76.8984 14.3242C76.8984 13.9076 76.9896 13.5137 77.1719 13.1426C77.3607 12.7715 77.6243 12.4427 77.9629 12.1562C78.3079 11.8698 78.7214 11.6452 79.2031 11.4824C79.6849 11.3197 80.222 11.2383 80.8145 11.2383C81.6608 11.2383 82.3835 11.388 82.9824 11.6875C83.5814 11.987 84.0404 12.3874 84.3594 12.8887C84.6784 13.3835 84.8379 13.9336 84.8379 14.5391H83.0312C83.0312 14.2461 82.9434 13.9629 82.7676 13.6895C82.5983 13.4095 82.3477 13.1784 82.0156 12.9961C81.6901 12.8138 81.2897 12.7227 80.8145 12.7227C80.3132 12.7227 79.9062 12.8008 79.5938 12.957C79.2878 13.1068 79.0632 13.2988 78.9199 13.5332C78.7832 13.7676 78.7148 14.015 78.7148 14.2754C78.7148 14.4707 78.7474 14.6465 78.8125 14.8027C78.8841 14.9525 79.0078 15.0924 79.1836 15.2227C79.3594 15.3464 79.6068 15.4635 79.9258 15.5742C80.2448 15.6849 80.6517 15.7956 81.1465 15.9062C82.0124 16.1016 82.7253 16.3359 83.2852 16.6094C83.8451 16.8828 84.2617 17.2181 84.5352 17.6152C84.8086 18.0124 84.9453 18.4941 84.9453 19.0605C84.9453 19.5228 84.8477 19.946 84.6523 20.3301C84.4635 20.7142 84.1868 21.0462 83.8223 21.3262C83.4642 21.5996 83.0345 21.8145 82.5332 21.9707C82.0384 22.1204 81.4818 22.1953 80.8633 22.1953C79.9323 22.1953 79.1445 22.0293 78.5 21.6973C77.8555 21.3652 77.3672 20.9355 77.0352 20.4082C76.7031 19.8809 76.5371 19.3242 76.5371 18.7383H78.3535C78.3796 19.2331 78.5228 19.627 78.7832 19.9199C79.0436 20.2064 79.3626 20.4115 79.7402 20.5352C80.1178 20.6523 80.4922 20.7109 80.8633 20.7109C81.3581 20.7109 81.7715 20.6458 82.1035 20.5156C82.4421 20.3854 82.6992 20.2064 82.875 19.9785C83.0508 19.7507 83.1387 19.4902 83.1387 19.1973Z" fill="#333333"/>
</g>
<defs>
<linearGradient id="paint0_linear_45_48" x1="35.8036" y1="28" x2="9.90369" y2="-3.73747" gradientUnits="userSpaceOnUse">
<stop stop-color="#FF79DA"/>
<stop offset="0.0001" stop-color="#FF79DA"/>
<stop offset="1" stop-color="#0057FF"/>
</linearGradient>
<clipPath id="clip0_45_48">
<rect width="95" height="28" fill="white"/>
</clipPath>
</defs>
</svg>
